<svg xmlns="http://www.w3.org/2000/svg" width="33.681" height="18.841" viewBox="0 0 33.681 18.841">
  <g id="矢印" transform="translate(33.681 0) rotate(90)">
    <path d="M 16.68634796142578 33.18093109130859 C 16.24528884887695 33.18093109130859 15.83038806915283 33.00741958618164 15.5180778503418 32.6923713684082 L 0.9859582781791687 18.02608108520508 C 0.672458291053772 17.70960998535156 0.4997782707214355 17.28851127624512 0.4997782707214355 16.84039115905762 C 0.4997782707214355 16.39227104187012 0.672458291053772 15.97117042541504 0.985998272895813 15.65467071533203 L 15.51815795898438 0.9889106154441833 C 15.83049869537354 0.6736106276512146 16.24535751342773 0.5000005960464478 16.68635749816895 0.5000005960464478 C 17.12734794616699 0.5000005960464478 17.54220771789551 0.6736106276512146 17.85450744628906 0.9888606071472168 C 18.5024585723877 1.642500638961792 18.50240898132324 2.706280708312988 17.8544979095459 3.360320568084717 L 4.846438407897949 16.48850059509277 L 4.497738361358643 16.84041023254395 L 4.846428394317627 17.19234085083008 L 17.85453796386719 30.32109069824219 C 18.5024585723877 30.97469139099121 18.50240898132324 32.03845977783203 17.85450744628906 32.69250106811523 C 17.54231834411621 33.00741958618164 17.12740898132324 33.18093109130859 16.68634796142578 33.18093109130859 Z" stroke="none"/>
    <path d="M 16.68634796142578 32.68093109130859 C 16.99302864074707 32.68093109130859 17.28182792663574 32.55998229980469 17.49928855895996 32.34061050415039 C 17.95491790771484 31.88067054748535 17.95501899719238 31.13267135620117 17.49935913085938 30.67300987243652 L 3.793858289718628 16.84041023254395 L 17.49928855895996 3.00843071937561 C 17.95490837097168 2.548490524291992 17.95501899719238 1.800480604171753 17.49928855895996 1.340750575065613 C 17.28161811828613 1.121010661125183 16.9929084777832 1.000000596046448 16.68635749816895 1.000000596046448 C 16.37980842590332 1.000000596046448 16.09109878540039 1.121020555496216 15.87331867218018 1.340840578079224 L 1.341208338737488 16.00656127929688 C 1.121038317680359 16.22881126403809 0.9997782707214355 16.52494049072266 0.9997782707214355 16.84039115905762 C 0.9997782707214355 17.15583992004395 1.121038317680359 17.45197105407715 1.341138243675232 17.67415046691895 L 15.87317848205566 32.34037017822266 C 16.09087753295898 32.55998229980469 16.37966918945312 32.68093109130859 16.68634796142578 32.68093109130859 M 16.68634796142578 33.68093109130859 C 16.13500785827637 33.68093109130859 15.58366870880127 33.46875 15.16298866271973 33.04438018798828 L 0.630788266658783 18.37800025939941 C 0.2101082801818848 17.95335006713867 -0.0002217184519395232 17.39687156677246 -0.0002217184519395232 16.84039115905762 C -0.0002217184519395232 16.28391075134277 0.2101082801818848 15.72743034362793 0.630788266658783 15.30278015136719 L 15.16298866271973 0.6369805932044983 C 16.00433540344238 -0.212327852845192 17.36836624145508 -0.2123308628797531 18.20971870422363 0.6369805932044983 C 19.05105781555176 1.485700607299805 19.05105781555176 2.862890720367432 18.20971870422363 3.71220064163208 L 5.201608180999756 16.84041976928711 L 18.20971870422363 29.96917152404785 C 19.05105781555176 30.81789016723633 19.05105781555176 32.1950798034668 18.20971870422363 33.04438018798828 C 17.78903770446777 33.46875 17.23769760131836 33.68093109130859 16.68634796142578 33.68093109130859 Z" stroke="none" fill="#000"/>
  </g>
</svg>
