<svg xmlns="http://www.w3.org/2000/svg" width="26" height="26" viewBox="0 0 26 26">
  <path id="iconmonstr-help-3" d="M13,2.167A10.833,10.833,0,1,1,2.167,13,10.846,10.846,0,0,1,13,2.167ZM13,0A13,13,0,1,0,26,13,13,13,0,0,0,13,0Zm1.354,18.417A1.354,1.354,0,1,1,13,17.062,1.354,1.354,0,0,1,14.354,18.417ZM15.863,7.585A3.825,3.825,0,0,0,13.1,6.551c-2.362,0-3.889,1.679-3.889,4.279h2.179c0-1.61.9-2.181,1.666-2.181a1.432,1.432,0,0,1,1.478,1.328c.067.918-.423,1.383-1.042,1.973a3.989,3.989,0,0,0-1.551,3.757h2.172a2.855,2.855,0,0,1,1.013-2.359,4.853,4.853,0,0,0,1.664-3.274,3.391,3.391,0,0,0-.925-2.488Z" fill="#839496"/>
</svg>
